<svg
   xmlns:dc="http://purl.org/dc/elements/1.1/"
   xmlns:cc="http://creativecommons.org/ns#"
   xmlns:rdf="http://www.w3.org/1999/02/22-rdf-syntax-ns#"
   xmlns:svg="http://www.w3.org/2000/svg"
   xmlns="http://www.w3.org/2000/svg"
   version="1.0"
   width="118.000000pt"
   height="100.000000pt"
   viewBox="0 0 118.000000 100.000000"
   preserveAspectRatio="xMidYMid meet"
   id="svg232">
  <defs
     id="defs236" />
  <metadata
     id="metadata220">
Created by potrace 1.16, written by Peter Selinger 2001-2019
<rdf:RDF>
  <cc:Work
     rdf:about="">
    <dc:format>image/svg+xml</dc:format>
    <dc:type
       rdf:resource="http://purl.org/dc/dcmitype/StillImage" />
    <dc:title />
  </cc:Work>
</rdf:RDF>
</metadata>
  <g
     id="g243"
     transform="translate(6.3369399,-1.8547141)">
    <g
       id="g230"
       stroke="none"
       fill="#000000"
       transform="matrix(0.06895711,0,0,-0.06398764,14.683154,77.279751)">
      <path
         d="m 420,158 c 27,-29 25,-64 -5,-93 -30,-30 -54,-31 -89,-4 -30,24 -34,63 -10,97 21,30 76,30 104,0 z"
         id="path259" />
      <path
         d="m 255,305 c 36,-36 34,-88 -5,-127 -27,-26 -36,-30 -68,-25 -84,14 -110,113 -43,164 28,22 89,16 116,-12 z"
         id="path257" />
      <path
         d="m 992,480 c 40,-11 92,-50 108,-81 21,-37 30,-125 24,-215 l -7,-92 -51,18 C 871,177 793,310 872,440 l 20,34 24,-56 c 27,-65 90,-174 105,-184 6,-3 -3,21 -20,54 -29,57 -71,171 -71,192 0,13 15,13 62,0 z"
         id="path255" />
      <path
         d="m 216,592 c 55,-44 59,-109 10,-158 -38,-38 -77,-44 -126,-19 -37,19 -50,43 -50,95 0,59 42,100 102,100 26,0 52,-7 64,-18 z"
         id="path253" />
      <path
         d="m 999,803 c 55,-45 75,-93 79,-200 3,-51 3,-93 0,-93 -2,0 -50,18 -108,39 -136,52 -172,86 -178,168 -2,32 0,69 5,81 9,24 9,23 65,-22 31,-25 73,-65 93,-88 21,-24 32,-32 25,-19 -6,13 -42,57 -78,99 l -65,75 62,-6 c 49,-4 71,-12 100,-34 z"
         id="path251" />
      <path
         d="m 334,876 c 69,-29 96,-107 61,-175 -15,-31 -69,-61 -108,-61 -31,0 -88,38 -104,70 -30,58 0,139 60,165 41,18 50,18 91,1 z"
         id="path249" />
      <path
         d="m 671,955 c 95,-50 90,-194 -9,-237 -73,-33 -148,-4 -178,68 -19,44 -18,73 4,112 35,66 116,91 183,57 z"
         id="path247" />
      <path
         id="path224"
         d="m 574,920 c -56,-23 -72,-103 -29,-145 26,-27 72,-33 106,-15 27,15 51,65 43,94 -12,50 -76,85 -120,66 z" />
      <path
         id="path226"
         d="m 260,837 c -59,-30 -64,-99 -8,-140 72,-53 159,55 98,121 -12,12 -25,22 -30,22 -4,0 -14,2 -22,5 -7,3 -24,-1 -38,-8 z" />
      <path
         id="path228"
         d="M 105,555 C 52,503 94,429 170,440 c 53,7 68,84 24,119 -35,27 -59,26 -89,-4 z" />
    </g>
  </g>
</svg>
